<mxfile host="app.diagrams.net" modified="2020-10-26T04:05:01.624Z" agent="5.0 (Windows NT 10.0; Win64; x64) AppleWebKit/537.36 (KHTML, like Gecko) Chrome/71.0.3578.98 Safari/537.36" etag="HDNfJUAlonUWmd5_spZ9" version="13.8.2" type="github" pages="2">
  <diagram id="d8l00uiHQtOS9tGdw6t3" name="USART">
    <mxGraphModel dx="1028" dy="753" grid="1" gridSize="10" guides="1" tooltips="1" connect="1" arrows="1" fold="1" page="1" pageScale="1" pageWidth="827" pageHeight="1169" math="0" shadow="0">
      <root>
        <mxCell id="0" />
        <mxCell id="1" parent="0" />
        <mxCell id="1lrp6incX57p_t-rB5LA-7" value="" style="edgeStyle=orthogonalEdgeStyle;rounded=0;orthogonalLoop=1;jettySize=auto;html=1;strokeWidth=2;" parent="1" source="1lrp6incX57p_t-rB5LA-1" edge="1">
          <mxGeometry relative="1" as="geometry">
            <mxPoint x="220" y="800" as="targetPoint" />
          </mxGeometry>
        </mxCell>
        <mxCell id="1lrp6incX57p_t-rB5LA-9" value="" style="edgeStyle=orthogonalEdgeStyle;rounded=0;orthogonalLoop=1;jettySize=auto;html=1;strokeWidth=2;" parent="1" source="1lrp6incX57p_t-rB5LA-5" edge="1">
          <mxGeometry relative="1" as="geometry">
            <mxPoint x="580" y="800" as="targetPoint" />
          </mxGeometry>
        </mxCell>
        <mxCell id="1lrp6incX57p_t-rB5LA-5" value="&lt;span style=&quot;font-size: 18px&quot;&gt;&lt;b&gt;DSP&lt;/b&gt;&lt;/span&gt;" style="rounded=1;whiteSpace=wrap;html=1;strokeWidth=2;" parent="1" vertex="1">
          <mxGeometry x="520" y="320" width="120" height="50" as="geometry" />
        </mxCell>
        <mxCell id="1lrp6incX57p_t-rB5LA-1" value="&lt;font style=&quot;font-size: 18px&quot;&gt;&lt;b&gt;上位机&lt;/b&gt;&lt;/font&gt;" style="rounded=1;whiteSpace=wrap;html=1;strokeWidth=2;" parent="1" vertex="1">
          <mxGeometry x="160" y="320" width="120" height="50" as="geometry" />
        </mxCell>
        <mxCell id="1lrp6incX57p_t-rB5LA-10" value="" style="endArrow=classic;html=1;strokeWidth=2;" parent="1" edge="1">
          <mxGeometry width="50" height="50" relative="1" as="geometry">
            <mxPoint x="220" y="440" as="sourcePoint" />
            <mxPoint x="580" y="440" as="targetPoint" />
          </mxGeometry>
        </mxCell>
        <mxCell id="1lrp6incX57p_t-rB5LA-11" value="CMD" style="text;html=1;strokeColor=none;fillColor=none;align=center;verticalAlign=middle;whiteSpace=wrap;rounded=0;fontSize=18;fontStyle=1" parent="1" vertex="1">
          <mxGeometry x="330" y="420" width="120" height="20" as="geometry" />
        </mxCell>
        <mxCell id="1lrp6incX57p_t-rB5LA-12" value="" style="endArrow=classic;html=1;strokeWidth=2;" parent="1" edge="1">
          <mxGeometry width="50" height="50" relative="1" as="geometry">
            <mxPoint x="580" y="450" as="sourcePoint" />
            <mxPoint x="220" y="480" as="targetPoint" />
          </mxGeometry>
        </mxCell>
        <mxCell id="1lrp6incX57p_t-rB5LA-13" value="ACK/NACK" style="text;html=1;strokeColor=none;fillColor=none;align=center;verticalAlign=middle;whiteSpace=wrap;rounded=0;fontSize=18;fontStyle=1" parent="1" vertex="1">
          <mxGeometry x="330" y="480" width="120" height="20" as="geometry" />
        </mxCell>
        <mxCell id="1lrp6incX57p_t-rB5LA-14" value="" style="endArrow=classic;html=1;strokeWidth=2;" parent="1" edge="1">
          <mxGeometry width="50" height="50" relative="1" as="geometry">
            <mxPoint x="580" y="560" as="sourcePoint" />
            <mxPoint x="220" y="560" as="targetPoint" />
          </mxGeometry>
        </mxCell>
        <mxCell id="1lrp6incX57p_t-rB5LA-15" value="" style="endArrow=classic;html=1;strokeWidth=2;" parent="1" edge="1">
          <mxGeometry width="50" height="50" relative="1" as="geometry">
            <mxPoint x="580" y="450" as="sourcePoint" />
            <mxPoint x="220" y="480" as="targetPoint" />
          </mxGeometry>
        </mxCell>
        <mxCell id="1lrp6incX57p_t-rB5LA-16" value="INFO" style="text;html=1;strokeColor=none;fillColor=none;align=center;verticalAlign=middle;whiteSpace=wrap;rounded=0;fontSize=18;fontStyle=1" parent="1" vertex="1">
          <mxGeometry x="330" y="540" width="120" height="20" as="geometry" />
        </mxCell>
        <mxCell id="1lrp6incX57p_t-rB5LA-17" value="" style="endArrow=classic;html=1;strokeWidth=2;" parent="1" edge="1">
          <mxGeometry width="50" height="50" relative="1" as="geometry">
            <mxPoint x="220" y="680" as="sourcePoint" />
            <mxPoint x="580" y="680" as="targetPoint" />
          </mxGeometry>
        </mxCell>
        <mxCell id="1lrp6incX57p_t-rB5LA-18" value="REQ" style="text;html=1;strokeColor=none;fillColor=none;align=center;verticalAlign=middle;whiteSpace=wrap;rounded=0;fontSize=18;fontStyle=1" parent="1" vertex="1">
          <mxGeometry x="330" y="660" width="120" height="20" as="geometry" />
        </mxCell>
        <mxCell id="1lrp6incX57p_t-rB5LA-19" value="" style="endArrow=classic;html=1;strokeWidth=2;" parent="1" edge="1">
          <mxGeometry width="50" height="50" relative="1" as="geometry">
            <mxPoint x="580" y="690" as="sourcePoint" />
            <mxPoint x="220" y="720" as="targetPoint" />
          </mxGeometry>
        </mxCell>
        <mxCell id="1lrp6incX57p_t-rB5LA-20" value="RESP" style="text;html=1;strokeColor=none;fillColor=none;align=center;verticalAlign=middle;whiteSpace=wrap;rounded=0;fontSize=18;fontStyle=1" parent="1" vertex="1">
          <mxGeometry x="329" y="720" width="120" height="20" as="geometry" />
        </mxCell>
        <mxCell id="1lrp6incX57p_t-rB5LA-21" value="" style="endArrow=classic;html=1;strokeWidth=2;" parent="1" edge="1">
          <mxGeometry width="50" height="50" relative="1" as="geometry">
            <mxPoint x="580" y="690" as="sourcePoint" />
            <mxPoint x="220" y="720" as="targetPoint" />
          </mxGeometry>
        </mxCell>
      </root>
    </mxGraphModel>
  </diagram>
  <diagram id="uB0eoChKlG8_a2nybtf9" name="AES-128">
    <mxGraphModel dx="1308" dy="763" grid="1" gridSize="10" guides="1" tooltips="1" connect="1" arrows="1" fold="1" page="1" pageScale="1" pageWidth="827" pageHeight="1169" math="0" shadow="0">
      <root>
        <mxCell id="XtpoNEnzLTLve9glvuTX-0" />
        <mxCell id="XtpoNEnzLTLve9glvuTX-1" parent="XtpoNEnzLTLve9glvuTX-0" />
        <mxCell id="irNtUXnrF6-HoIE5s3nc-3" value="" style="outlineConnect=0;fontColor=#232F3E;gradientColor=none;fillColor=#232F3E;strokeColor=none;dashed=0;verticalLabelPosition=bottom;verticalAlign=top;align=center;html=1;fontSize=12;fontStyle=0;aspect=fixed;pointerEvents=1;shape=mxgraph.aws4.internet;" vertex="1" parent="XtpoNEnzLTLve9glvuTX-1">
          <mxGeometry x="330" y="180" width="78" height="48" as="geometry" />
        </mxCell>
        <mxCell id="irNtUXnrF6-HoIE5s3nc-5" value="" style="edgeStyle=orthogonalEdgeStyle;html=1;endArrow=open;elbow=vertical;startArrow=open;startFill=0;endFill=0;strokeColor=#545B64;rounded=0;strokeWidth=3;" edge="1" parent="XtpoNEnzLTLve9glvuTX-1">
          <mxGeometry width="100" relative="1" as="geometry">
            <mxPoint x="190" y="436" as="sourcePoint" />
            <mxPoint x="580" y="436" as="targetPoint" />
          </mxGeometry>
        </mxCell>
        <mxCell id="irNtUXnrF6-HoIE5s3nc-9" value="" style="pointerEvents=1;shadow=0;dashed=0;html=1;strokeColor=none;fillColor=#434445;aspect=fixed;labelPosition=center;verticalLabelPosition=bottom;verticalAlign=top;align=center;outlineConnect=0;shape=mxgraph.vvd.cpu;" vertex="1" parent="XtpoNEnzLTLve9glvuTX-1">
          <mxGeometry x="600" y="396.5" width="80" height="80" as="geometry" />
        </mxCell>
        <mxCell id="irNtUXnrF6-HoIE5s3nc-15" value="" style="pointerEvents=1;shadow=0;dashed=0;html=1;strokeColor=none;fillColor=#434445;aspect=fixed;labelPosition=center;verticalLabelPosition=bottom;verticalAlign=top;align=center;outlineConnect=0;shape=mxgraph.vvd.phone;" vertex="1" parent="XtpoNEnzLTLve9glvuTX-1">
          <mxGeometry x="105.25" y="340" width="29.5" height="50" as="geometry" />
        </mxCell>
        <mxCell id="irNtUXnrF6-HoIE5s3nc-16" value="" style="pointerEvents=1;shadow=0;dashed=0;html=1;strokeColor=none;fillColor=#434445;aspect=fixed;labelPosition=center;verticalLabelPosition=bottom;verticalAlign=top;align=center;outlineConnect=0;shape=mxgraph.vvd.storage;" vertex="1" parent="XtpoNEnzLTLve9glvuTX-1">
          <mxGeometry x="850" y="411.5" width="37.5" height="50" as="geometry" />
        </mxCell>
        <mxCell id="irNtUXnrF6-HoIE5s3nc-17" value="" style="pointerEvents=1;shadow=0;dashed=0;html=1;strokeColor=none;fillColor=#434445;aspect=fixed;labelPosition=center;verticalLabelPosition=bottom;verticalAlign=top;align=center;outlineConnect=0;shape=mxgraph.vvd.monitor;strokeWidth=2;" vertex="1" parent="XtpoNEnzLTLve9glvuTX-1">
          <mxGeometry x="70" y="417.02" width="100" height="93" as="geometry" />
        </mxCell>
        <mxCell id="irNtUXnrF6-HoIE5s3nc-18" value="" style="edgeStyle=orthogonalEdgeStyle;html=1;endArrow=openThin;elbow=vertical;startArrow=openThin;startFill=0;endFill=0;strokeColor=#545B64;rounded=0;strokeWidth=3;" edge="1" parent="XtpoNEnzLTLve9glvuTX-1">
          <mxGeometry width="100" relative="1" as="geometry">
            <mxPoint x="707" y="436" as="sourcePoint" />
            <mxPoint x="827" y="436" as="targetPoint" />
            <Array as="points">
              <mxPoint x="727" y="436" />
              <mxPoint x="727" y="436" />
            </Array>
          </mxGeometry>
        </mxCell>
        <mxCell id="irNtUXnrF6-HoIE5s3nc-25" value="" style="endArrow=classic;html=1;strokeWidth=3;dashed=1;" edge="1" parent="XtpoNEnzLTLve9glvuTX-1">
          <mxGeometry width="50" height="50" relative="1" as="geometry">
            <mxPoint x="160" y="360" as="sourcePoint" />
            <mxPoint x="320" y="240" as="targetPoint" />
          </mxGeometry>
        </mxCell>
        <mxCell id="irNtUXnrF6-HoIE5s3nc-26" value="" style="endArrow=classic;html=1;strokeWidth=3;dashed=1;" edge="1" parent="XtpoNEnzLTLve9glvuTX-1">
          <mxGeometry width="50" height="50" relative="1" as="geometry">
            <mxPoint x="440" y="240" as="sourcePoint" />
            <mxPoint x="600" y="360" as="targetPoint" />
          </mxGeometry>
        </mxCell>
        <mxCell id="irNtUXnrF6-HoIE5s3nc-29" value="" style="outlineConnect=0;fontColor=#232F3E;gradientColor=none;fillColor=#C7131F;strokeColor=none;dashed=0;verticalLabelPosition=bottom;verticalAlign=top;align=center;html=1;fontSize=12;fontStyle=0;aspect=fixed;pointerEvents=1;shape=mxgraph.aws4.encrypted_data;" vertex="1" parent="XtpoNEnzLTLve9glvuTX-1">
          <mxGeometry x="372" y="444.05" width="42" height="52.84" as="geometry" />
        </mxCell>
        <mxCell id="irNtUXnrF6-HoIE5s3nc-30" value="" style="outlineConnect=0;fontColor=#232F3E;gradientColor=none;fillColor=#C7131F;strokeColor=none;dashed=0;verticalLabelPosition=bottom;verticalAlign=top;align=center;html=1;fontSize=12;fontStyle=0;aspect=fixed;pointerEvents=1;shape=mxgraph.aws4.encrypted_data;" vertex="1" parent="XtpoNEnzLTLve9glvuTX-1">
          <mxGeometry x="180" y="250" width="42" height="52.84" as="geometry" />
        </mxCell>
        <mxCell id="irNtUXnrF6-HoIE5s3nc-31" value="" style="outlineConnect=0;fontColor=#232F3E;gradientColor=none;fillColor=#C7131F;strokeColor=none;dashed=0;verticalLabelPosition=bottom;verticalAlign=top;align=center;html=1;fontSize=12;fontStyle=0;aspect=fixed;pointerEvents=1;shape=mxgraph.aws4.addon;" vertex="1" parent="XtpoNEnzLTLve9glvuTX-1">
          <mxGeometry x="750" y="451.21000000000004" width="48" height="24.62" as="geometry" />
        </mxCell>
      </root>
    </mxGraphModel>
  </diagram>
</mxfile>
